<svg width="138" height="138" viewBox="0 0 138 138" fill="none" xmlns="http://www.w3.org/2000/svg">
<g clip-path="url(#clip0_2204_2)">
<path d="M131.462 49.45L83.6788 36.3975C75.8107 34.2594 67.4229 35.2268 60.2464 39.1L39.2262 50.6L8.61484 56.35C6.33996 56.3499 4.1574 57.2507 2.54344 58.8558C0.929489 60.4609 0.0151659 62.64 0 64.9175L0 82.1675C0 84.455 0.907632 86.6488 2.52323 88.2663C4.13882 89.8838 6.33004 90.7925 8.61484 90.7925H14.3581C14.9225 94.1274 16.6481 97.1546 19.2289 99.3375C21.8098 101.52 25.0792 102.718 28.4577 102.718C31.8362 102.718 35.1056 101.52 37.6864 99.3375C40.2673 97.1546 41.9928 94.1274 42.5573 90.7925H94.7632C95.3277 94.1274 97.0533 97.1546 99.6341 99.3375C102.215 101.52 105.484 102.718 108.863 102.718C112.241 102.718 115.511 101.52 118.092 99.3375C120.672 97.1546 122.398 94.1274 122.962 90.7925H128.706C130.991 90.7925 133.182 89.8838 134.797 88.2663C136.413 86.6488 137.321 84.455 137.321 82.1675V57.5C137.295 55.7164 136.719 53.9845 135.669 52.5429C134.62 51.1012 133.15 50.0206 131.462 49.45ZM103.378 47.7825V50.5425H99.3578L97.118 46L103.378 47.7825ZM63.1755 44.2175C68.7005 41.2657 75.1036 40.4083 81.2092 41.8025H82.3579H83.3342L89.8815 43.585L93.0977 50.0825H51.689L63.1755 44.2175ZM28.7161 96.945C27.0123 96.945 25.3467 96.4391 23.93 95.4914C22.5133 94.5437 21.4091 93.1966 20.7571 91.6206C20.105 90.0446 19.9344 88.3104 20.2668 86.6373C20.5992 84.9642 21.4197 83.4274 22.6245 82.2212C23.8293 81.015 25.3643 80.1935 27.0355 79.8607C28.7066 79.5279 30.4387 79.6987 32.0129 80.3515C33.587 81.0043 34.9325 82.1098 35.8791 83.5282C36.8257 84.9466 37.331 86.6141 37.331 88.32C37.331 90.6075 36.4233 92.8013 34.8077 94.4188C33.1922 96.0363 31.0009 96.945 28.7161 96.945ZM109.121 96.945C107.417 96.945 105.752 96.4391 104.335 95.4914C102.918 94.5437 101.814 93.1966 101.162 91.6206C100.51 90.0446 100.34 88.3104 100.672 86.6373C101.004 84.9642 101.825 83.4274 103.03 82.2212C104.235 81.015 105.77 80.1935 107.441 79.8607C109.112 79.5279 110.844 79.6987 112.418 80.3515C113.992 81.0043 115.338 82.1098 116.284 83.5282C117.231 84.9466 117.736 86.6141 117.736 88.32C117.736 90.6075 116.829 92.8013 115.213 94.4188C113.597 96.0363 111.406 96.945 109.121 96.945ZM132.094 67.7925H129.223C128.461 67.7925 127.731 68.0954 127.192 68.6346C126.654 69.1737 126.351 69.905 126.351 70.6675C126.351 71.43 126.654 72.1613 127.192 72.7004C127.731 73.2396 128.461 73.5425 129.223 73.5425H132.094V82.1675C132.094 82.93 131.792 83.6613 131.253 84.2004C130.715 84.7396 129.984 85.0425 129.223 85.0425H123.077C122.345 81.8946 120.569 79.0876 118.041 77.0782C115.512 75.0687 112.378 73.975 109.15 73.975C105.922 73.975 102.788 75.0687 100.259 77.0782C97.7307 79.0876 95.9556 81.8946 95.2227 85.0425H42.6722C41.9393 81.8946 40.1642 79.0876 37.6355 77.0782C35.1067 75.0687 31.9733 73.975 28.7449 73.975C25.5164 73.975 22.383 75.0687 19.8543 77.0782C17.3255 79.0876 15.5504 81.8946 14.8175 85.0425H8.61484C7.85324 85.0425 7.12284 84.7396 6.5843 84.2004C6.04577 83.6613 5.74323 82.93 5.74323 82.1675V73.5425H8.61484C9.37644 73.5425 10.1068 73.2396 10.6454 72.7004C11.1839 72.1613 11.4865 71.43 11.4865 70.6675C11.4865 69.905 11.1839 69.1737 10.6454 68.6346C10.1068 68.0954 9.37644 67.7925 8.61484 67.7925H5.74323V64.9175C5.76463 64.4991 5.87038 64.0893 6.05412 63.7129C6.23786 63.3365 6.49579 63.0012 6.81238 62.7272C7.12896 62.4532 7.49765 62.2462 7.89625 62.1187C8.29485 61.9911 8.71511 61.9456 9.13173 61.985L40.2026 56.2925H106.25C107.011 56.2925 107.742 55.9896 108.28 55.4504C108.819 54.9113 109.121 54.18 109.121 53.4175V49.335L129.969 55.085C130.524 55.2294 131.022 55.5365 131.401 55.9669C131.78 56.3972 132.021 56.9312 132.094 57.5V67.7925ZM89.02 73.5425H48.8174C48.0558 73.5425 47.3254 73.8454 46.7869 74.3846C46.2484 74.9237 45.9458 75.655 45.9458 76.4175C45.9458 77.18 46.2484 77.9113 46.7869 78.4504C47.3254 78.9896 48.0558 79.2925 48.8174 79.2925H89.02C89.7816 79.2925 90.512 78.9896 91.0506 78.4504C91.5891 77.9113 91.8916 77.18 91.8916 76.4175C91.8916 75.655 91.5891 74.9237 91.0506 74.3846C90.512 73.8454 89.7816 73.5425 89.02 73.5425Z" fill="white"/>
</g>
<defs>
<clipPath id="clip0_2204_2">
<rect width="137.837" height="138" fill="white"/>
</clipPath>
</defs>
</svg>
